<svg xmlns="http://www.w3.org/2000/svg" viewBox="320 0 1920 1920" width="1024" height="1024">
<rect width="2560" height="1920" fill="#1B4F8A"/>
<text x="1280" y="150" text-anchor="middle" font-family="'Helvetica Neue', Helvetica, Arial, 'Liberation Sans', sans-serif" font-weight="700" font-size="44" letter-spacing="10" fill="#FFFFFF">MOCK-UP · NOT FOR DELIVERY</text>
<path fill="#F5C518" d="M 1736 552 C 1570 626 1390 610 1248 600 C 1100 590 1026 748 984 948 C 946 1130 998 1228 1110 1228 C 1250 1228 1368 1022 1384 806 L 1510 752 C 1524 1044 1350 1350 1100 1350 C 894 1350 810 1178 864 918 C 924 630 1058 450 1268 480 C 1460 508 1596 592 1736 552 Z"/>
<circle cx="1635" cy="415" r="54" fill="#FFFFFF"/>
<circle cx="1702" cy="266" r="30" fill="#FFFFFF"/>
<text x="1280" y="1660" text-anchor="middle" font-family="'Helvetica Neue', Helvetica, Arial, 'Liberation Sans', sans-serif" font-weight="700" font-size="112" letter-spacing="-3" fill="#FFFFFF">Meltemi Fizz</text>
<text x="1280" y="1840" text-anchor="middle" font-family="'Helvetica Neue', Helvetica, Arial, 'Liberation Sans', sans-serif" font-weight="700" font-size="44" letter-spacing="6" fill="#F5C518">SPARKLING TEA · ZERO SUGAR</text>
</svg>